<svg xmlns="http://www.w3.org/2000/svg" fill="none" viewBox="0 0 36.64 36.67">
  <path fill-rule="evenodd" clip-rule="evenodd" d="M28.2084 0.235704C28.8525 0.665373 29.0265 1.53616 28.5971 2.18067L20.7883 13.9018C20.359 14.5463 19.4888 14.7205 18.8447 14.2908C18.2006 13.8611 18.0266 12.9904 18.456 12.3459L26.2648 0.624696C26.6941 -0.0198075 27.5643 -0.193965 28.2084 0.235704ZM33.701 5.69933C34.2048 6.28745 34.1367 7.17287 33.549 7.67697L24.4387 15.4911C23.851 15.9952 22.9661 15.9271 22.4624 15.3389C21.9586 14.7508 22.0267 13.8654 22.6144 13.3613L31.7247 5.5472C32.3124 5.0431 33.1972 5.11121 33.701 5.69933ZM0 18.3332C0 17.5587 0.627509 16.9307 1.40158 16.9307H35.2398C36.0138 16.9307 36.6413 17.5587 36.6413 18.3332C36.6413 23.1955 34.7112 27.8586 31.2754 31.2967C27.8395 34.7349 23.1796 36.6663 18.3207 36.6663C15.9148 36.6663 13.5324 36.1922 11.3096 35.2708C9.0868 34.3496 7.06718 32.9991 5.36601 31.2967C1.93021 27.8586 0 23.1955 0 18.3332ZM2.86655 19.7358C3.19305 23.3398 4.77025 26.7336 7.34815 29.3132C8.78909 30.7552 10.4997 31.899 12.3823 32.6792C14.2649 33.4596 16.2829 33.8613 18.3207 33.8613C22.4362 33.8613 26.3831 32.2253 29.2932 29.3132C31.8711 26.7336 33.4483 23.3398 33.7748 19.7358H2.86655Z" fill="black"/>
</svg>